<svg id="Calque_1" data-name="Calque 1" xmlns="http://www.w3.org/2000/svg" viewBox="0 0 512 415.84"><defs><style>.cls-1{fill:#fff;}</style></defs><title>twitter</title><path class="cls-1" d="M459.37,151.72c.33,4.55.33,9.1.33,13.65,0,138.72-105.58,298.56-298.56,298.56A296.53,296.53,0,0,1,0,416.81a217.08,217.08,0,0,0,25.34,1.3,210.15,210.15,0,0,0,130.27-44.83A105.12,105.12,0,0,1,57.5,300.51a132.33,132.33,0,0,0,19.82,1.62,111,111,0,0,0,27.61-3.57,105,105,0,0,1-84.14-103v-1.3a105.68,105.68,0,0,0,47.43,13.32A105.09,105.09,0,0,1,35.74,67.25,298.27,298.27,0,0,0,252.1,177.06a118.46,118.46,0,0,1-2.6-24,105,105,0,0,1,181.6-71.8,206.6,206.6,0,0,0,66.6-25.34,104.65,104.65,0,0,1-46.13,57.83A210.36,210.36,0,0,0,512,97.46a225.57,225.57,0,0,1-52.63,54.25Z" transform="translate(0 -48.08)"/></svg>