<svg id="Layer_35" enable-background="new 0 0 64 64" height="512" viewBox="0 0 64 64" width="512" xmlns="http://www.w3.org/2000/svg"><path d="m44 52 1 6h-26l1-6z" fill="#aab2bd"/><path d="m49 60v2h-34v-2c0-1.1.9-2 2-2h2 26 2c1.1 0 2 .9 2 2z" fill="#aab2bd"/><path d="m62 46v2c0 2.21-1.79 4-4 4h-14-24-14c-2.21 0-4-1.79-4-4v-2h10 8 24 8z" fill="#fcd770"/><path d="m62 46h-60v-25.97c0-2.209 1.791-4 4-4h52c2.209 0 4 1.791 4 4z" fill="#69d6f4"/><path d="m40.99 16.67v.01c.01.1.01.21.01.32 0 3.53-2.04 6.59-5 8.06v2.94c0 1.1-.45 2.1-1.17 2.83-.73.72-1.73 1.17-2.83 1.17-2.21 0-4-1.79-4-4v-2.94c-2.96-1.47-5-4.53-5-8.06 0-.11 0-.22.01-.33-2.39 1.49-3.8 3.09-3.99 3.3.09 2.79.85 5.47 2.15 7.84.19.35.39.69.61 1.02 1.35 2.13 3.18 3.97 5.37 5.36l1.16.74c1.1.7 2.38 1.07 3.69 1.07s2.59-.37 3.69-1.07l1.16-.74c2.19-1.39 4.02-3.23 5.37-5.36 1.68-2.61 2.65-5.67 2.76-8.86-.19-.21-1.6-1.81-3.99-3.3z" fill="#aab2bd"/><path d="m42.22 28.83c-1.35 2.13-3.18 3.97-5.37 5.36l-1.16.74c-1.1.7-2.38 1.07-3.69 1.07s-2.59-.37-3.69-1.07l-1.16-.74c-2.19-1.39-4.02-3.23-5.37-5.36-5.85 3.5-9.78 9.86-9.78 17.17h8 24 8c0-7.31-3.93-13.67-9.78-17.17z" fill="#838f9b"/><path d="m45 19.34c0 .21 0 .42-.02.63-.19-.21-1.6-1.81-3.99-3.3-2.22-1.38-5.28-2.67-8.99-2.67s-6.77 1.29-8.99 2.67c-2.39 1.49-3.8 3.09-3.99 3.3-.02-.21-.02-.42-.02-.63 0-1.11.1-2.21.32-3.28.75-4.03 2.91-7.7 6.13-10.34l3-2.45c1-.82 2.26-1.27 3.55-1.27s2.55.45 3.55 1.27l3 2.45c2.04 1.67 3.65 3.76 4.75 6.08.64 1.35 1.11 2.78 1.38 4.26.22 1.07.32 2.17.32 3.28z" fill="#838f9b"/><path d="m28 25.06c-2.96-1.47-5-4.53-5-8.06 0-.11 0-.22.01-.33 2.22-1.38 5.28-2.67 8.99-2.67s6.77 1.29 8.99 2.67v.01c.01.1.01.21.01.32 0 3.53-2.04 6.59-5 8.06-1.2.6-2.57.94-4 .94s-2.8-.34-4-.94z" fill="#f0d0b4"/><path d="m36 25.06v2.94c0 1.1-.45 2.1-1.17 2.83-.73.72-1.73 1.17-2.83 1.17-2.21 0-4-1.79-4-4v-2.94c1.2.6 2.57.94 4 .94s2.8-.34 4-.94z" fill="#f0d0b4"/><circle cx="32" cy="38" fill="#ffc729" r="2"/><path d="m58 15h-12.514c-.934-3.914-3.118-7.445-6.307-10.055l-2.997-2.453c-1.177-.962-2.661-1.492-4.182-1.492s-3.005.53-4.181 1.493l-2.998 2.453c-3.19 2.61-5.373 6.141-6.307 10.055h-12.514c-2.757 0-5 2.243-5 5v28c0 2.757 2.243 5 5 5h12.82l-.667 4h-1.153c-1.654 0-3 1.346-3 3v3h36v-3c0-1.654-1.346-3-3-3h-1.153l-.667-4h12.82c2.757 0 5-2.243 5-5v-28.001c0-2.757-2.243-5-5-5zm0 2c1.654 0 3 1.346 3 3v25h-8.034c-.322-6.639-3.826-12.795-9.381-16.485 1.559-2.748 2.415-5.891 2.415-9.176 0-.789-.055-1.569-.151-2.339zm-15 25v3h-22v-3h-2v3h-5.966c.32-5.958 3.473-11.476 8.456-14.799 1.361 1.888 3.087 3.533 5.124 4.83l1.162.74c.51.324 1.058.569 1.621.768-.245.433-.397.927-.397 1.461 0 1.654 1.346 3 3 3s3-1.346 3-3c0-.534-.152-1.028-.397-1.462.563-.198 1.111-.443 1.621-.768l1.162-.74c2.037-1.297 3.763-2.941 5.124-4.83 4.983 3.323 8.136 8.841 8.456 14.799h-5.966v-3h-2zm-6.688-8.657-1.162.74c-.657.418-1.393.68-2.15.807v-1.991c2.279-.465 4-2.484 4-4.899v-2.353c2.568-1.491 4.409-4.089 4.874-7.138 1.022.773 1.739 1.471 2.094 1.845-.319 5.306-3.129 10.108-7.656 12.989zm-3.312 4.657c0 .551-.448 1-1 1s-1-.449-1-1 .448-1 1-1 1 .449 1 1zm-4-11.461c.948.298 1.955.461 3 .461s2.052-.163 3-.461v1.461c0 1.654-1.346 3-3 3s-3-1.346-3-3zm3-1.539c-4.327 0-7.855-3.456-7.987-7.752 2.052-1.195 4.77-2.248 7.987-2.248s5.935 1.053 7.987 2.248c-.132 4.296-3.66 7.752-7.987 7.752zm-9.874-6.492c.465 3.05 2.305 5.647 4.874 7.138v2.354c0 2.414 1.721 4.434 4 4.899v1.991c-.758-.127-1.494-.39-2.15-.807l-1.162-.74c-4.527-2.881-7.337-7.683-7.656-12.99.355-.374 1.073-1.071 2.094-1.845zm3.961-12.015 2.998-2.453h.001c.819-.67 1.854-1.04 2.914-1.04s2.095.37 2.915 1.041l2.998 2.453c3.402 2.784 5.525 6.742 5.988 11.055-2.232-1.883-6.361-4.549-11.901-4.549s-9.669 2.666-11.901 4.548c.463-4.313 2.586-8.271 5.988-11.055zm-20.087 10.507h12.151c-.096.771-.151 1.551-.151 2.339 0 3.285.856 6.428 2.414 9.176-5.554 3.69-9.058 9.845-9.381 16.485h-8.033v-25c0-1.654 1.346-3 3-3zm42 43v1h-32v-1c0-.551.448-1 1-1h30c.552 0 1 .449 1 1zm-4.18-3h-23.64l.667-4h22.306zm14.18-6h-52c-1.654 0-3-1.346-3-3v-1h58v1c0 1.654-1.346 3-3 3z"/><path d="m48 19h2v2h-2z"/><path d="m52 19h2v2h-2z"/><path d="m56 19h2v2h-2z"/><path d="m6 19h2v2h-2z"/><path d="m10 19h2v2h-2z"/><path d="m14 19h2v2h-2z"/></svg>