<?xml version="1.0" encoding="utf-8"?>
<!-- Generator: Adobe Illustrator 21.0.0, SVG Export Plug-In . SVG Version: 6.00 Build 0)  -->
<svg version="1.1" id="Calque_1" xmlns="http://www.w3.org/2000/svg" xmlns:xlink="http://www.w3.org/1999/xlink" x="0px" y="0px"
	 viewBox="0 0 478 478" style="enable-background:new 0 0 478 478;" xml:space="preserve">
<style type="text/css">
	.st0{fill:#FFD15C;}
	.st1{fill:#F8B64C;}
	.st2{fill:#40596B;}
	.st3{fill:#FF7058;}
</style>
<path class="st0" d="M159,84h250c0-22.1-17.9-40-40-40H269v26h-60V44H109c-22.1,0-40,17.9-40,40v344c0,22.1,17.9,40,40,40h10V124
	C119,101.9,136.9,84,159,84z"/>
<g>
	<path class="st1" d="M369,34h-90V10c0-5.5-4.5-10-10-10h-60c-5.5,0-10,4.5-10,10v24h-90c-27.6,0-50,22.4-50,50v344
		c0,27.6,22.4,50,50,50h260c27.6,0,50-22.4,50-50V84C419,56.4,396.6,34,369,34z M219,20h40v40h-40V20z M399,428
		c0,16.5-13.5,30-30,30H109c-16.5,0-30-13.5-30-30V84c0-16.5,13.5-30,30-30h90v16c0,5.5,4.5,10,10,10h60c5.5,0,10-4.5,10-10V54h90
		c16.5,0,30,13.5,30,30V428z"/>
	<path class="st2" d="M347.2,404H130.8c-5.5,0-10,4.5-10,10s4.5,10,10,10h216.5c5.5,0,10-4.5,9.9-10.1S352.7,404,347.2,404z"/>
	<path class="st2" d="M180.8,380h116.5c5.5,0,10-4.5,10-10s-4.5-10-10-10H180.8c-5.5,0-10,4.5-10,10S175.3,380,180.8,380z"/>
</g>
<path class="st3" d="M239,221.3c28.5,0,51.7-23.1,51.7-51.6c0-28.5-23.1-51.7-51.6-51.7c-28.5,0-51.7,23.1-51.7,51.6
	C187.4,198.1,210.5,221.3,239,221.3z M239,138c12.8,0,24.4,7.7,29.3,19.5s2.2,25.5-6.9,34.5s-22.7,11.8-34.5,6.9
	c-11.8-4.9-19.5-16.5-19.5-29.3C207.4,152.1,221.5,138,239,138z"/>
<path class="st3" d="M239,240.4c-21.1-0.1-41.4,8.4-56.2,23.5c-15,15.3-23.2,36.1-23.2,58.7c0,5.5,4.5,10,10,10h138.8
	c5.5,0,10-4.5,10-10c0-22.6-8.2-43.4-23.2-58.7C280.4,248.8,260.1,240.3,239,240.4z M180.3,312.6c1.7-13.1,7.6-25.3,16.8-34.7
	c11.1-11.2,26.2-17.5,41.9-17.5s30.8,6.3,41.9,17.5c9.2,9.5,15.1,21.6,16.8,34.7H180.3z"/>
</svg>
